<?xml version="1.0" encoding="UTF-8"?>
<!-- Generated by Pixelmator Pro 3.6.14 -->
<svg width="512" height="512" viewBox="0 0 512 512" xmlns="http://www.w3.org/2000/svg">
    <path id="favicon" fill="none" stroke="#52525b" stroke-width="54.5" stroke-linecap="round" stroke-linejoin="round" d="M 256 134.969116 C 219.186005 101.946106 171.45488 83.71283 122 83.781097 C 98.505333 83.781097 75.948669 87.801117 55 95.21579 L 55 413.465759 C 76.520859 405.872925 99.179001 402.00592 122 402.031097 C 173.478348 402.031097 220.445328 421.394104 256 453.219116 M 256 134.969116 C 292.812897 101.944275 340.544739 83.710693 390 83.781097 C 413.494659 83.781097 436.051331 87.801117 457 95.21579 L 457 413.465759 C 435.479126 405.872925 412.820984 402.00592 390 402.031097 C 340.545135 401.96283 292.813995 420.196106 256 453.219116 M 256 134.969116 L 256 453.219116"/>
</svg>
